<svg width="504px" height="720px" viewBox="0 0 504 720" preserveAspectRatio="xMinYMin meet" xmlns="http://www.w3.org/2000/svg" xmlns:xlink="http://www.w3.org/1999/xlink" version="1.1"><style type="text/css"><![CDATA[@import url("https://fonts.googleapis.com/css2?family=Courier+Prime&display=swap");]]></style><defs><filter id="receiptlineinvert" x="0" y="0" width="100%" height="100%"><feFlood flood-color="#000"/><feComposite in="SourceGraphic" operator="xor"/></filter></defs><g font-family="'Courier Prime', 'Courier New', 'Courier', monospace" fill="#000" font-size="22" dominant-baseline="text-after-edge" text-anchor="middle"><g transform="translate(0,24)"><text><tspan x="6">&#xa0;</tspan></text></g><g transform="translate(0,72)"><text transform="scale(2,2)"><tspan x="6">C</tspan><tspan x="18">h</tspan><tspan x="30">e</tspan><tspan x="42">c</tspan><tspan x="54">k</tspan><tspan x="66">o</tspan><tspan x="78">u</tspan><tspan x="90">t</tspan><tspan x="102">s</tspan></text></g><g transform="translate(0,96)"><text><tspan x="6">&#xa0;</tspan></text></g><g transform="translate(0,120)"><text><tspan x="6">&#xa0;</tspan></text></g><g transform="translate(0,144)"><text><tspan x="6">&#xa0;</tspan></text></g><g transform="translate(0,168)"><text><tspan x="6">T</tspan><tspan x="18">i</tspan><tspan x="30">t</tspan><tspan x="42">l</tspan><tspan x="54">e</tspan></text><text><tspan x="414">D</tspan><tspan x="426">u</tspan><tspan x="438">e</tspan><tspan x="450">&#xa0;</tspan><tspan x="462">D</tspan><tspan x="474">a</tspan><tspan x="486">t</tspan><tspan x="498">e</tspan></text></g><g transform="translate(0,192)"><text><tspan x="6">&#xa0;</tspan></text><text><tspan x="366">&#xa0;</tspan></text></g><g transform="translate(0,216)"><text><tspan x="6">D</tspan><tspan x="18">r</tspan><tspan x="30">a</tspan><tspan x="42">c</tspan><tspan x="54">u</tspan><tspan x="66">l</tspan><tspan x="78">a</tspan></text><text><tspan x="414">2</tspan><tspan x="426">3</tspan><tspan x="438">/</tspan><tspan x="450">1</tspan><tspan x="462">0</tspan><tspan x="474">/</tspan><tspan x="486">2</tspan><tspan x="498">2</tspan></text></g><g transform="translate(0,240)"><text><tspan x="6">M</tspan><tspan x="18">r</tspan><tspan x="30">s</tspan><tspan x="42">&#xa0;</tspan><tspan x="54">D</tspan><tspan x="66">o</tspan><tspan x="78">u</tspan><tspan x="90">b</tspan><tspan x="102">t</tspan><tspan x="114">f</tspan><tspan x="126">i</tspan><tspan x="138">r</tspan><tspan x="150">e</tspan></text><text><tspan x="414">2</tspan><tspan x="426">3</tspan><tspan x="438">/</tspan><tspan x="450">1</tspan><tspan x="462">0</tspan><tspan x="474">/</tspan><tspan x="486">2</tspan><tspan x="498">2</tspan></text></g><g transform="translate(0,264)"><text><tspan x="6">&#xa0;</tspan></text><text><tspan x="366">&#xa0;</tspan></text></g><g transform="translate(0,288)"><text><tspan x="6">&#xa0;</tspan></text><text><tspan x="366">&#xa0;</tspan></text></g><g transform="translate(0,312)"><text><tspan x="6">&#xa0;</tspan></text><text><tspan x="366">&#xa0;</tspan></text></g><g transform="translate(0,336)"><text><tspan x="6">R</tspan><tspan x="18">e</tspan><tspan x="30">n</tspan><tspan x="42">e</tspan><tspan x="54">w</tspan><tspan x="66">&#xa0;</tspan><tspan x="78">y</tspan><tspan x="90">o</tspan><tspan x="102">u</tspan><tspan x="114">r</tspan><tspan x="126">&#xa0;</tspan><tspan x="138">m</tspan><tspan x="150">a</tspan><tspan x="162">t</tspan><tspan x="174">e</tspan><tspan x="186">r</tspan><tspan x="198">i</tspan><tspan x="210">a</tspan><tspan x="222">l</tspan><tspan x="234">s</tspan><tspan x="246">&#xa0;</tspan><tspan x="258">a</tspan><tspan x="270">n</tspan><tspan x="282">d</tspan><tspan x="294">&#xa0;</tspan><tspan x="306">p</tspan><tspan x="318">l</tspan><tspan x="330">a</tspan><tspan x="342">c</tspan><tspan x="354">e</tspan><tspan x="366">&#xa0;</tspan><tspan x="378">h</tspan><tspan x="390">o</tspan><tspan x="402">l</tspan><tspan x="414">d</tspan><tspan x="426">s</tspan></text></g><g transform="translate(0,360)"><text><tspan x="6">o</tspan><tspan x="18">n</tspan><tspan x="30">l</tspan><tspan x="42">i</tspan><tspan x="54">n</tspan><tspan x="66">e</tspan><tspan x="78">&#xa0;</tspan><tspan x="90">o</tspan><tspan x="102">r</tspan><tspan x="114">&#xa0;</tspan><tspan x="126">b</tspan><tspan x="138">y</tspan><tspan x="150">&#xa0;</tspan><tspan x="162">p</tspan><tspan x="174">h</tspan><tspan x="186">o</tspan><tspan x="198">n</tspan><tspan x="210">e</tspan><tspan x="222">:</tspan></text></g><g transform="translate(0,384)"><text><tspan x="6">&#xa0;</tspan></text></g><g transform="translate(0,408)"><text><tspan x="6">h</tspan><tspan x="18">t</tspan><tspan x="30">t</tspan><tspan x="42">p</tspan><tspan x="54">s</tspan><tspan x="66">:</tspan><tspan x="78">/</tspan><tspan x="90">/</tspan><tspan x="102">n</tspan><tspan x="114">e</tspan><tspan x="126">v</tspan><tspan x="138">e</tspan><tspan x="150">r</tspan><tspan x="162">l</tspan><tspan x="174">a</tspan><tspan x="186">n</tspan><tspan x="198">d</tspan><tspan x="210">l</tspan><tspan x="222">i</tspan><tspan x="234">b</tspan><tspan x="246">r</tspan><tspan x="258">a</tspan><tspan x="270">r</tspan><tspan x="282">y</tspan><tspan x="294">.</tspan><tspan x="306">l</tspan><tspan x="318">i</tspan><tspan x="330">b</tspan><tspan x="342">.</tspan><tspan x="354">i</tspan><tspan x="366">n</tspan><tspan x="378">.</tspan><tspan x="390">u</tspan><tspan x="402">s</tspan></text></g><g transform="translate(0,432)"><text><tspan x="6">(</tspan><tspan x="18">3</tspan><tspan x="30">1</tspan><tspan x="42">7</tspan><tspan x="54">)</tspan><tspan x="66">&#xa0;</tspan><tspan x="78">5</tspan><tspan x="90">5</tspan><tspan x="102">5</tspan><tspan x="114">-</tspan><tspan x="126">1</tspan><tspan x="138">2</tspan><tspan x="150">3</tspan><tspan x="162">4</tspan></text></g><g transform="translate(0,456)"><text><tspan x="6">&#xa0;</tspan></text></g><g transform="translate(0,480)"><text><tspan x="6">&#xa0;</tspan></text></g><g transform="translate(0,504)"><text><tspan x="6">Y</tspan><tspan x="18">o</tspan><tspan x="30">u</tspan><tspan x="42">'</tspan><tspan x="54">v</tspan><tspan x="66">e</tspan><tspan x="78">&#xa0;</tspan><tspan x="90">s</tspan><tspan x="102">a</tspan><tspan x="114">v</tspan><tspan x="126">e</tspan><tspan x="138">d</tspan><tspan x="150">&#xa0;</tspan></text><text stroke="#000"><tspan x="162">$</tspan><tspan x="174">4</tspan><tspan x="186">8</tspan><tspan x="198">3</tspan><tspan x="210">1</tspan><tspan x="222">.</tspan><tspan x="234">2</tspan><tspan x="246">0</tspan></text><text><tspan x="258">&#xa0;</tspan><tspan x="270">b</tspan><tspan x="282">y</tspan><tspan x="294">&#xa0;</tspan><tspan x="306">u</tspan><tspan x="318">s</tspan><tspan x="330">i</tspan><tspan x="342">n</tspan><tspan x="354">g</tspan></text></g><g transform="translate(0,528)"><text><tspan x="6">y</tspan><tspan x="18">o</tspan><tspan x="30">u</tspan><tspan x="42">r</tspan><tspan x="54">&#xa0;</tspan><tspan x="66">l</tspan><tspan x="78">i</tspan><tspan x="90">b</tspan><tspan x="102">r</tspan><tspan x="114">a</tspan><tspan x="126">r</tspan><tspan x="138">y</tspan><tspan x="150">&#xa0;</tspan><tspan x="162">c</tspan><tspan x="174">a</tspan><tspan x="186">r</tspan><tspan x="198">d</tspan><tspan x="210">!</tspan><tspan x="222">&#xa0;</tspan><tspan x="234">N</tspan><tspan x="246">i</tspan><tspan x="258">c</tspan><tspan x="270">e</tspan><tspan x="282">&#xa0;</tspan><tspan x="294">w</tspan><tspan x="306">o</tspan><tspan x="318">r</tspan><tspan x="330">k</tspan><tspan x="342">!</tspan></text></g><g transform="translate(0,552)"><text><tspan x="6">&#xa0;</tspan></text></g><g transform="translate(0,576)"><text><tspan x="6">&#xa0;</tspan></text></g><g transform="translate(0,600)"><text stroke="#000"><tspan x="6">N</tspan><tspan x="18">e</tspan><tspan x="30">v</tspan><tspan x="42">e</tspan><tspan x="54">r</tspan><tspan x="66">l</tspan><tspan x="78">a</tspan><tspan x="90">n</tspan><tspan x="102">d</tspan><tspan x="114">&#xa0;</tspan><tspan x="126">L</tspan><tspan x="138">i</tspan><tspan x="150">b</tspan><tspan x="162">r</tspan><tspan x="174">a</tspan><tspan x="186">r</tspan><tspan x="198">y</tspan></text></g><g transform="translate(0,624)"><text><tspan x="6">1</tspan><tspan x="18">2</tspan><tspan x="30">3</tspan><tspan x="42">&#xa0;</tspan><tspan x="54">M</tspan><tspan x="66">a</tspan><tspan x="78">i</tspan><tspan x="90">n</tspan><tspan x="102">&#xa0;</tspan><tspan x="114">S</tspan><tspan x="126">t</tspan></text></g><g transform="translate(0,648)"><text><tspan x="6">I</tspan><tspan x="18">n</tspan><tspan x="30">d</tspan><tspan x="42">i</tspan><tspan x="54">a</tspan><tspan x="66">n</tspan><tspan x="78">a</tspan><tspan x="90">p</tspan><tspan x="102">o</tspan><tspan x="114">l</tspan><tspan x="126">i</tspan><tspan x="138">s</tspan><tspan x="150">,</tspan><tspan x="162">&#xa0;</tspan><tspan x="174">I</tspan><tspan x="186">N</tspan><tspan x="198">&#xa0;</tspan><tspan x="210">4</tspan><tspan x="222">6</tspan><tspan x="234">2</tspan><tspan x="246">2</tspan><tspan x="258">7</tspan></text></g><g transform="translate(0,672)"><text><tspan x="6">(</tspan><tspan x="18">3</tspan><tspan x="30">1</tspan><tspan x="42">7</tspan><tspan x="54">)</tspan><tspan x="66">&#xa0;</tspan><tspan x="78">5</tspan><tspan x="90">5</tspan><tspan x="102">5</tspan><tspan x="114">-</tspan><tspan x="126">1</tspan><tspan x="138">2</tspan><tspan x="150">3</tspan><tspan x="162">4</tspan></text></g><g transform="translate(0,696)"><text><tspan x="6">S</tspan><tspan x="18">u</tspan><tspan x="30">n</tspan><tspan x="42">d</tspan><tspan x="54">a</tspan><tspan x="66">y</tspan><tspan x="78">,</tspan><tspan x="90">&#xa0;</tspan><tspan x="102">A</tspan><tspan x="114">p</tspan><tspan x="126">r</tspan><tspan x="138">i</tspan><tspan x="150">l</tspan><tspan x="162">&#xa0;</tspan><tspan x="174">8</tspan><tspan x="186">&#xa0;</tspan><tspan x="198">2</tspan><tspan x="210">0</tspan><tspan x="222">2</tspan><tspan x="234">2</tspan><tspan x="246">&#xa0;</tspan><tspan x="258">@</tspan><tspan x="270">&#xa0;</tspan><tspan x="282">1</tspan><tspan x="294">1</tspan><tspan x="306">:</tspan><tspan x="318">1</tspan><tspan x="330">7</tspan><tspan x="342">p</tspan><tspan x="354">m</tspan></text></g><g transform="translate(0,720)"><text><tspan x="6">&#xa0;</tspan></text></g></g></svg>
